<?xml version="1.0" encoding="UTF-8"?>
<svg id="_图层_2" data-name="图层 2" xmlns="http://www.w3.org/2000/svg" viewBox="0 0 122.26 122.18">
  <defs>
    <style>
      .cls-1 {
        fill: #fe7e01;
        stroke-width: 0px;
      }
    </style>
  </defs>
  <g id="Layer_1" data-name="Layer 1">
    <g>
      <path class="cls-1" d="m66.77,53.85c-1.11,1.8-2.1,3.67-2.96,5.6-4.36,9.74-5.42,20.61-8.23,30.92s-8.76,22.66-18.25,27.22c6.61,2.04,11,3.97,15.27,4.39.48.05,2.03-.89,2.85-1.49s1.59-1.37,2.3-2.1c1.56-1.59,2.86-3.42,3.94-5.37,2.4-4.33,3.74-9.2,4.6-14.06,1.45-8.21,1.81-16.73,4.95-24.44,3.83-9.41,11.59-16.8,20.47-21.46,8.88-4.66,18.85-6.77,28.79-7.7-1.09-4.04-2.56-7.98-4.37-11.74-.54-1.12-1.17-2.29-2.23-2.92-.89-.52-1.96-.59-2.99-.61-9.72-.22-19.53,2.36-27.87,7.5-6.56,4.04-12.19,9.66-16.26,16.27Z"/>
      <path class="cls-1" d="m95.07,81.29c5.64-4.89,12.84-7.76,20.08-9.17,2.23-.45,4.48-.76,6.74-.99.53-4.71.49-9.5-.17-14.27-17.72.17-36.99,6.34-44.84,23.21-3.95,8.95-3.4,19.35-6.97,28.55-1.97,5.26-4.99,9.78-8.85,13.45,4.43.29,8.92.07,13.38-.69,1.37-1.23,2.62-2.59,3.7-4.12,2.81-3.91,4.25-8.56,5.51-13.17,2.17-8.3,4.46-17.02,11.42-22.8Z"/>
      <path class="cls-1" d="m32.41,115.23c7.17-4.77,12.85-11.37,14.95-20.39,3-11.04,2.17-22.83,5.79-33.8,5.93-19.42,22.75-34.36,41.83-39.97,2.78-.8,7.6-1.95,10.49-2.33C87.79-.14,56.35-6.08,31.88,7.07,3.06,22.56-8.46,60.17,6.68,89.38c5.98,11.55,15.1,20.32,25.73,25.85Z"/>
      <path class="cls-1" d="m99.5,90.51c-9.67,6.86-8.48,19.57-16.96,28.37,3.24-.77,6.46-1.89,9.59-3.38,13-6.17,21.99-17.37,25.76-30.17-6.51.16-12.98,1.45-18.39,5.19Z"/>
    </g>
  </g>
</svg>